<svg width="2479" height="2500" viewBox="0 0 2479 2500" fill="none" xmlns="http://www.w3.org/2000/svg">
<g clip-path="url(#clip0_221_2251)">
<path d="M2460.16 48.0543C2462.97 32.9797 2457.08 17.1012 2444.02 7.67579C2427.29 -4.40643 2404.14 -1.98677 2390.22 13.2547L2368.51 37.0915L2334.23 51.8024C2322.05 48.0363 2308.47 47.7127 2294.32 51.2095C2286.21 53.2192 2283.81 52.747 2276.59 51.3241C2260.81 48.2292 2244.31 46.3542 2217.98 54.7687C2208.7 54.2261 2197.82 55.5545 2180.71 61.1595C2159.24 68.2416 2145.87 85.123 2136.11 97.5046L2132.86 101.659C2071.46 117.477 2047.2 151.993 2037.78 178.859C2035.92 184.08 2034.69 189.281 2033.69 194.484C1968.98 145.43 1880.02 140.98 1804.52 185.117C1717.86 235.841 1679.11 331.872 1705.82 429.808C1748.91 588.01 1899.01 737.01 1988.65 826.091L2017.7 855.119C2064.41 902.765 2124.84 998.805 2112.78 1063C2109.84 1079.01 2101.36 1102.23 2062.23 1119.96C2042.29 1128.97 2023.22 1134.57 2004.76 1136.75C2037.87 1043.95 2021.86 944.156 1959.02 878.787C1869.32 785.658 1784.6 808.894 1752.23 834.176C1738.6 844.888 1733.22 863.075 1738.84 879.444C1744.51 895.821 1759.99 906.836 1777.39 906.82C1820.43 906.786 1868.86 938.84 1889.9 981.367C1907.64 1017.21 1904.21 1056.06 1880.18 1094.66C1861.95 1079.8 1846.25 1063.41 1832.8 1049.28C1827.26 1043.49 1822.05 1038.02 1817.45 1033.53L1814.1 1029.82C1749.73 957.279 1684.15 914.953 1618.46 903.384C1610.23 787.286 1528.21 669.84 1403.88 601.559C1393.81 595.992 1383.35 591.061 1372.51 586.591C1349.31 465.291 1275.11 383.949 1156.74 350.644C984.002 301.968 846.849 379.164 780.429 562.328C757.76 624.827 709.596 837.878 670.057 1016.5L662.616 1049.97C657.326 1073.59 629.801 1116.04 600.474 1126.14C592.379 1128.99 582.176 1130.31 568.062 1118.78C539.261 1095.35 556.269 1027.72 565.415 991.378C567.208 984.324 568.703 978.244 569.945 972.712C577.421 938.095 566.06 899.491 540.242 872.002C515.006 845.105 480.082 832.753 444.428 838.145C368.916 849.514 344.969 910.588 335.56 938.113C328.24 924.14 318.158 905.791 299.124 894.921C283.666 886.094 273.304 882.581 264.059 881.229C239.754 867.553 223.244 866.212 207.024 866.11C199.733 866.076 197.251 866.076 189.729 862.438C174.701 855.282 159.206 853.079 144.71 855.843L116.711 838.087L98.9898 811.087C87.5426 793.641 64.7669 787.728 46.2155 797.357C32.1437 804.674 24.0748 819.266 24.4165 834.407C10.417 840.597 0.639894 854.41 0.239967 870.483C-0.28657 891.116 14.7559 908.864 35.2044 911.734L67.1263 916.248L94.7313 933.744C98.202 947.595 106.438 960.619 119.036 971.349C125.401 976.779 126.418 979.016 129.459 985.714C136.157 1000.42 144.141 1014.96 166.525 1031.57C171.473 1039.35 178.855 1047.4 193.324 1057.96C211.588 1071.31 233.098 1072.29 248.814 1072.98C250.359 1073.09 252.276 1073.14 254.093 1073.27C302.661 1114.02 344.895 1113.64 372.26 1105.62C377.526 1104.1 382.504 1102.08 387.293 1099.89C385.124 1181.05 433.293 1256 513.115 1291.6C604.783 1332.59 705.43 1308.14 769.529 1229.42C873.001 1102.24 906.806 893.48 926.961 768.759L933.71 728.187C945.241 662.473 988.086 557.443 1047.29 529.824C1062 522.94 1085.89 516.329 1123.06 537.842C1142.04 548.741 1157.63 560.986 1170.15 574.696C1075.46 601.853 1003.66 673.01 987.135 762.177C963.564 889.221 1031.81 944.65 1071.23 956.198C1087.91 961.104 1105.74 954.87 1115.81 940.679C1125.87 926.595 1125.77 907.608 1115.69 893.54C1090.52 858.505 1088.41 800.49 1110.74 758.59C1129.54 723.338 1163.14 703.464 1208.46 700.544C1207.08 724.047 1202.85 746.367 1199.28 765.515C1197.78 773.367 1196.36 780.791 1195.38 787.166C1195.25 787.841 1194.69 790.168 1194.26 791.995C1174.72 878.023 1176.14 950.517 1198.34 1008.34C1102.98 1067.22 1035.37 1187.59 1025.57 1322.11C1024.69 1333.59 1024.56 1345.25 1025.02 1356.86C924.419 1428.5 881.414 1529.85 900.417 1651.36C928.143 1828.67 1055.4 1921.16 1249.66 1905.25C1315.91 1899.82 1529.67 1854.94 1708.56 1816.42L1742.02 1809.19C1765.75 1804.21 1815.78 1811.49 1837.18 1833.94C1843.12 1840.19 1848.59 1848.87 1844.01 1866.51C1834.72 1902.45 1766.11 1915.15 1729.25 1922.02C1722.14 1923.31 1715.96 1924.44 1710.45 1925.67C1675.84 1933.3 1645.46 1959.72 1631.24 1994.64C1617.3 2028.76 1620.56 2065.7 1640.32 2095.84C1682.14 2159.77 1747.62 2156.09 1776.57 2153.17C1766.94 2165.66 1754.46 2182.43 1752.49 2204.34C1750.93 2222.03 1752.05 2232.95 1754.65 2241.84C1752.29 2269.62 1758 2285.26 1764.64 2299.98C1767.66 2306.63 1768.62 2308.9 1768.54 2317.23C1768.25 2334.42 1773.1 2349.83 1782.18 2362.09L1776.16 2403.85L1758.84 2431.05C1747.55 2448.69 1751.47 2471.9 1767.88 2484.82C1773.83 2489.53 1781 2492.48 1788.55 2493.31C1796.1 2494.15 1803.73 2492.85 1810.58 2489.56C1822.01 2499.79 1838.61 2503.07 1853.44 2496.84C1872.48 2488.87 1882.51 2467.9 1876.75 2448.06L1867.8 2417.05L1874.16 2372.67C1884.73 2363.75 1892.68 2351.24 1897.07 2336.01C1899.28 2328.03 1900.89 2326.16 1905.74 2320.58C1916.29 2308.39 1926.2 2295.04 1931.95 2267.83C1937.02 2260.09 1941.23 2249.98 1944.83 2232.45C1949.39 2210.3 1941.26 2190.33 1935.4 2175.76L1933.43 2170.83C1950.26 2109.72 1932.32 2071.48 1913.69 2049.93C1910.02 2045.81 1906.13 2042.12 1902.19 2038.66C1976.84 2006.87 2024.91 1931.82 2024.09 1844.39C2023.07 1743.97 1958.94 1662.72 1860.73 1637.2C1701.95 1596.15 1498.11 1652.36 1376.36 1685.98L1336.7 1696.77C1272.1 1713.68 1158.77 1718.45 1109.02 1676.14C1096.64 1665.61 1080.67 1646.75 1084.73 1603.89C1086.78 1582.12 1091.4 1562.83 1098.63 1545.77C1162.78 1620.56 1257.38 1656.17 1345.31 1634.04C1470.63 1602.51 1492.58 1517.38 1486.63 1476.76C1484.16 1459.6 1471.04 1445.88 1454.03 1442.67C1436.98 1439.47 1419.76 1447.41 1411.2 1462.45C1389.8 1499.87 1337.95 1525.99 1290.56 1523.16C1250.64 1520.78 1218.6 1498.51 1197.04 1458.46C1219.02 1450 1240.99 1444.49 1259.94 1439.8C1267.74 1437.88 1275.06 1436.1 1281.25 1434.34C1282.88 1434.01 1284.5 1433.67 1286.13 1433.3C1384.28 1412.74 1454.97 1375.07 1497.08 1321.28C1595.26 1371.12 1727.72 1368.26 1847.05 1311.11C1857.39 1306.14 1867.53 1300.46 1877.43 1294.27C1989.63 1345.99 2098.96 1333.03 2194.97 1256.19C2335.05 1144.1 2352.21 987.654 2241.93 827.014C2204.3 772.173 2059.17 608.929 1936.9 472.819L1914.04 447.314C1897.97 429.195 1879.43 382.164 1888.28 352.419C1890.71 344.177 1895.59 335.093 1913.18 330.328C1948.95 320.59 1994.07 373.788 2018.29 402.372C2022.99 407.93 2027 412.695 2030.84 416.912C2054.65 443.186 2092.66 456.378 2129.99 451.43C2166.58 446.577 2196.97 425.348 2213.36 393.226C2248.08 325.206 2212.32 270.199 2195.43 246.505C2211.05 248.689 2231.82 251.199 2251.81 241.991C2267.97 234.579 2276.84 228.178 2283.31 221.488C2308.58 209.761 2319.31 197.042 2328.78 183.961C2333.17 178.049 2334.58 176.037 2341.86 172.016C2361.84 160.966 2371.02 146.336 2375.29 134.873L2405.14 122.021L2437.36 122.622C2458.27 123.04 2476.08 107.563 2478.51 86.8191C2480.32 71.1336 2472.83 56.2719 2460.16 48.0543ZM1354.13 1182.63C1341.27 1217.98 1262 1252.57 1205.8 1273.63C1220.74 1245.34 1240.58 1218.73 1263.53 1197.34C1306.97 1156.83 1343.38 1157.91 1351.02 1162C1356.64 1171.92 1355.88 1177.82 1354.13 1182.63ZM1413.89 964.181C1402.54 965.099 1397.53 962.012 1393.87 958.425C1367.05 931.985 1368.67 845.555 1372.93 785.668C1392.43 811.006 1408.37 840.159 1418.28 869.967C1436.96 926.252 1420.82 958.943 1413.89 964.181ZM1620.39 1166.55C1563.66 1149 1546.5 1116.84 1546.33 1108.21C1552.14 1098.36 1557.62 1096.08 1562.63 1095.19C1599.73 1088.82 1669.09 1140.42 1715.25 1178.79C1683.36 1179.88 1650.36 1175.84 1620.39 1166.55Z" fill="#66B933"/>
<path d="M2438.08 82.1283L2401.61 74.0212L2420.28 40.6484L2392.62 70.9826L2332.41 96.8633C2327.06 91.1257 2318.04 87.2007 2304.12 90.6474C2267.32 99.8256 2266.24 80.205 2225.37 95.0948C2216.99 98.1817 2219.81 91.0654 2193.38 99.7834C2175 105.808 2162.61 136.587 2150.32 139.223C2031.73 164.608 2078.71 265.771 2095.1 285.796C2115.43 310.716 2098.53 319.251 2089.51 310.294C2075.45 296.218 2058.04 273.151 2024.62 240.234C1910.11 127.266 1696.79 242.121 1745.03 419.056C1790.48 585.693 1971.2 749.647 2046.76 826.636C2115.12 896.295 2233.92 1086.71 2079.02 1156.9C2026.36 1180.8 1981.18 1182.62 1942.71 1172.9C1996.75 1084.77 1993.63 973.326 1929.78 906.947C1841.88 815.633 1777.32 866.166 1777.32 866.166C1879.6 866.088 2008.06 995.562 1902.21 1134.27C1897.97 1139.82 1893.43 1145.14 1888.61 1150.18C1843.28 1123.34 1810.69 1083.85 1788.58 1062.05C1778.76 1052.33 1689.19 938.167 1577.86 940.609C1587.62 822.13 1501.92 701.686 1384.42 637.094C1369.04 628.685 1352.89 621.756 1336.2 616.401C1324.69 527.828 1281.15 427.818 1145.71 389.668C939.384 331.556 851.517 485.379 818.634 576.137C790.461 653.831 714.969 1002.41 702.264 1058.87C690.199 1112.7 614.72 1209.2 542.401 1150.25C486.619 1104.83 521.742 1003.21 530.197 964.096C539.282 922.021 501.944 870.511 450.44 878.272C388.719 887.557 377.157 944.264 370.081 962.528C355.147 1001.02 320.305 981.992 313.295 977.402C302.724 970.571 295.735 939.733 278.906 930.132C254.745 916.344 256.136 923.866 248.521 919.228C211.459 896.416 206.428 915.399 172.224 899.129C161.558 894.04 153.118 894.539 146.902 897.405C144.822 898.745 143.423 900.14 141.461 901.934L87.5316 867.72L65.0613 833.428L78.9281 868.107L40.8828 871.524L81.5066 877.245L134.759 911.012C132.04 919.005 133.077 929.943 145.425 940.472C174.251 965.085 158.968 977.368 194.899 1001.95C202.276 1006.96 194.835 1008.8 217.309 1025.19C232.896 1036.61 265.143 1028.78 274.476 1037.27C364.134 1118.88 419.059 1021.81 425.791 996.797C434.186 965.776 451.011 974.536 448.971 987.059C445.665 1006.7 437.08 1034.27 429.771 1080.61C404.565 1239.54 622.192 1346.1 737.968 1203.85C846.939 1069.88 875.062 827.466 893.65 721.232C910.557 625.095 996.166 417.607 1143.38 502.681C1193.47 531.59 1221.22 567.264 1235.75 604.172C1132.59 611.541 1043.82 679.014 1027.06 769.619C1004.01 894.165 1082.68 917.246 1082.68 917.246C1023 834.138 1053.55 654.341 1227.95 659.607C1234.92 659.833 1241.88 660.432 1248.8 661.399C1253.35 713.87 1240.25 763.369 1235.41 793.996C1233.26 807.172 1195.49 936.991 1252.47 1026.08C1145.66 1069.99 1075.54 1194.87 1066.06 1325.05C1064.74 1343.07 1065.25 1360.55 1067.26 1377.46C991.533 1424.88 918.813 1506.14 940.568 1645.13C973.681 1856.9 1150.1 1872.7 1246.34 1864.79C1328.64 1858.04 1677.03 1781.43 1733.6 1769.5C1787.6 1758.07 1906.76 1786.49 1883.33 1876.76C1865.23 1946.39 1758.23 1956.8 1719.2 1965.38C1677.07 1974.64 1645.87 2030.07 1674.39 2073.65C1708.57 2125.88 1764.92 2112.76 1784.42 2111.63C1825.71 2109.2 1822.86 2148.79 1821.62 2157.08C1819.8 2169.55 1794.7 2188.75 1792.98 2207.97C1790.5 2235.67 1796.77 2231.29 1795.71 2240.14C1790.38 2283.36 1809.74 2279.94 1809.17 2317.88C1809.01 2329.36 1812.79 2336.7 1817.76 2341.16L1817.94 2340.96L1819.41 2342.52L1820.86 2343.64V2343.7C1822.33 2344.66 1823.92 2345.42 1825.6 2345.94L1815.14 2418.38L1793.07 2453L1819.07 2426.08L1837.81 2459.42L1826.37 2419.99L1836.94 2346.84C1844.95 2345.55 1853.72 2339.83 1857.93 2325.03C1868.31 2288.56 1885.84 2297.35 1893.18 2254.46C1894.71 2245.67 1899.4 2251.67 1905 2224.42C1908.94 2205.49 1888.37 2179.42 1892.16 2167.43C1928.99 2051.87 1817.86 2042.42 1792.37 2046.67C1760.66 2051.97 1761.58 2033.04 1773.87 2029.71C1793.1 2024.47 1821.71 2020.8 1866.87 2008.18C2021.84 1964.79 2028.06 1722.63 1850.54 1676.66C1683.29 1633.39 1451.23 1708.85 1346.95 1736.19C1252.52 1760.91 1028.24 1769.52 1044.25 1600.21C1049.66 1542.64 1070.49 1502.53 1098.01 1473.98C1147.7 1564.62 1246.02 1617.22 1335.34 1594.71C1458.26 1563.82 1446.43 1482.69 1446.43 1482.69C1395.71 1571.48 1219.6 1618.71 1151.69 1457.97C1149.01 1451.53 1146.66 1444.96 1144.64 1438.28C1190.48 1412.25 1240.89 1403.57 1270.8 1395.21C1284.4 1391.44 1433.87 1369.52 1484.02 1266.15C1575.42 1332 1714.53 1329.67 1829.39 1274.56C1845.7 1266.79 1860.62 1257.61 1874.31 1247.5C1953.04 1289.67 2059.73 1312.46 2169.57 1224.6C2336.95 1090.66 2263.03 929.704 2208.4 850.093C2161.63 781.988 1922.21 517.641 1883.66 474.465C1847.04 433.244 1812.44 315.764 1902.47 291.266C1971.86 272.379 2034.07 360.106 2060.93 389.773C2089.87 421.67 2153.43 421.286 2177.15 374.881C2205.53 319.273 2166.13 276.857 2155.45 260.496C2132.85 225.897 2168.59 208.726 2176.41 205.629C2188.11 201.039 2217.26 213.314 2234.82 205.207C2260.12 193.607 2253.21 190.338 2261.4 186.867C2301.55 170.006 2289.01 154.897 2322.15 136.557C2331.29 131.5 2335.89 125.387 2337.73 119.416L2337.4 118.254C2338.87 113.106 2338.7 109.571 2337.95 106.775L2397.1 81.3767L2438.08 82.1283ZM1336.54 735.726C1337.68 724.672 1338.69 711.748 1339.32 697.471C1396.26 736.335 1437.53 799.141 1456.84 857.086C1484.77 941.296 1453.8 1000.55 1420.2 1004.38C1308.48 1017.18 1327.95 821.877 1336.54 735.726ZM1175.58 1327.49C1165.07 1331.11 1152.88 1335.51 1139.59 1340.92C1151.25 1272.97 1191.17 1209.28 1235.83 1167.59C1300.7 1107.1 1367.47 1110.58 1384.96 1139.54C1443.1 1235.73 1257.43 1299.38 1175.58 1327.49ZM1608.35 1205.36C1523.59 1179.13 1493.49 1119.38 1509.9 1089.84C1564.53 991.554 1712.01 1121.08 1777.07 1178.23C1785.4 1185.58 1795.28 1193.97 1806.59 1202.78C1741.82 1226.43 1666.67 1223.46 1608.35 1205.36Z" fill="black"/>
<path d="M1917.13 2461.16H1924.82V2438.75H1933.57V2433.34H1908.64V2438.75H1917.13V2461.16ZM1935.84 2460.24V2433.86H1947.47L1951.72 2451.73H1951.8L1956 2433.86H1967.34V2460.24H1960.96V2438.16L1960.84 2438.08L1954.73 2460.24H1948.11L1942.32 2437.89L1942.23 2438.01V2460.24H1935.84Z" fill="#66B933"/>
</g>
<defs>
<clipPath id="clip0_221_2251">
<rect width="2479" height="2500" fill="white"/>
</clipPath>
</defs>
</svg>
